<svg width="24" height="24" viewBox="0 0 24 24" fill="none" xmlns="http://www.w3.org/2000/svg">
<path d="M14 11H13V10C13 9.73478 12.8946 9.48043 12.7071 9.29289C12.5195 9.10536 12.2652 9 12 9C11.7348 9 11.4804 9.10536 11.2929 9.29289C11.1053 9.48043 11 9.73478 11 10V11H9.99997C9.73475 11 9.4804 11.1054 9.29286 11.2929C9.10533 11.4804 8.99997 11.7348 8.99997 12C8.99997 12.2652 9.10533 12.5196 9.29286 12.7071C9.4804 12.8946 9.73475 13 9.99997 13H11V14C11 14.2652 11.1053 14.5196 11.2929 14.7071C11.4804 14.8946 11.7348 15 12 15C12.2652 15 12.5195 14.8946 12.7071 14.7071C12.8946 14.5196 13 14.2652 13 14V13H14C14.2652 13 14.5195 12.8946 14.7071 12.7071C14.8946 12.5196 15 12.2652 15 12C15 11.7348 14.8946 11.4804 14.7071 11.2929C14.5195 11.1054 14.2652 11 14 11ZM20.16 5C19.0937 3.9447 17.6853 3.30527 16.189 3.19708C14.6927 3.08889 13.207 3.51907 12 4.41C10.7276 3.46364 9.14396 3.03451 7.56789 3.20904C5.99182 3.38356 4.54041 4.14878 3.50594 5.35059C2.47148 6.55239 1.93079 8.10152 1.99277 9.68601C2.05475 11.2705 2.71479 12.7727 3.83997 13.89L9.83997 19.94C10.4025 20.5018 11.165 20.8174 11.96 20.8174C12.755 20.8174 13.5175 20.5018 14.08 19.94L20.08 13.89C20.6709 13.3126 21.1419 12.6242 21.4659 11.8642C21.7899 11.1043 21.9606 10.2878 21.968 9.46163C21.9754 8.63551 21.8195 7.81606 21.5092 7.05038C21.199 6.2847 20.7404 5.58789 20.16 5ZM18.75 12.46L12.75 18.46C12.657 18.5537 12.5464 18.6281 12.4245 18.6789C12.3027 18.7297 12.172 18.7558 12.04 18.7558C11.908 18.7558 11.7773 18.7297 11.6554 18.6789C11.5335 18.6281 11.4229 18.5537 11.33 18.46L5.32997 12.46C4.54573 11.6583 4.10658 10.5815 4.10658 9.46C4.10658 8.33853 4.54573 7.26166 5.32997 6.46C6.12913 5.67099 7.20694 5.22857 8.32997 5.22857C9.453 5.22857 10.5308 5.67099 11.33 6.46C11.4229 6.55373 11.5335 6.62812 11.6554 6.67889C11.7773 6.72966 11.908 6.7558 12.04 6.7558C12.172 6.7558 12.3027 6.72966 12.4245 6.67889C12.5464 6.62812 12.657 6.55373 12.75 6.46C13.5491 5.67099 14.6269 5.22857 15.75 5.22857C16.873 5.22857 17.9508 5.67099 18.75 6.46C19.5402 7.26255 19.9832 8.34368 19.9832 9.47C19.9832 10.5963 19.5402 11.6775 18.75 12.48V12.46Z" fill="#DCE0EC"/>
</svg>
